<svg width="74" height="47" viewBox="0 0 74 47" fill="none" xmlns="http://www.w3.org/2000/svg">
<path d="M52.8855 15.3886V3.63207C52.8855 2.52113 53.7882 1.61966 54.9007 1.61966C56.0132 1.61966 56.9159 2.52113 56.9159 3.63207V15.3886C56.9159 16.4996 56.0132 17.401 54.9007 17.401C53.7882 17.401 52.8855 16.4996 52.8855 15.3886Z" fill="url(#paint0_linear_300_178)"/>
<path d="M73.9999 11.1543C73.9999 12.2316 73.9063 13.1031 73.7303 13.769C73.4868 14.6218 73.0523 15.3662 72.4268 15.9983C71.3105 17.1355 69.8347 17.7078 68.0068 17.7078C67.1191 17.7078 66.295 17.5806 65.5459 17.3225C64.6994 17.0307 64.0027 16.5968 63.4596 16.0208C62.7928 15.3213 62.3471 14.5694 62.1261 13.7727C62.0324 13.4099 61.9575 13.0059 61.9163 12.5533C61.8901 12.1905 61.8751 11.7266 61.8751 11.1581V3.63207C61.8751 2.52113 62.7778 1.61966 63.8903 1.61966H63.8941C65.0065 1.61966 65.9092 2.52113 65.9092 3.63207V11.1543C65.9092 11.5695 65.9317 11.9286 65.9729 12.2279C66.0254 12.6094 66.1227 12.9311 66.2538 13.1967C66.576 13.8438 67.1453 14.1655 67.9656 14.1655C68.8159 14.1655 69.3852 13.8513 69.6774 13.2191C69.7973 12.961 69.8797 12.6431 69.9284 12.2615C69.9583 11.9847 69.9696 11.6144 69.9696 11.1581V3.63207C69.9696 2.52113 70.8723 1.61966 71.9848 1.61966H71.9885C73.101 1.61966 74.0037 2.52113 74.0037 3.63207V11.1543H73.9999Z" fill="url(#paint1_linear_300_178)"/>
<path d="M52.8855 44.5238V32.7672C52.8855 31.6563 53.7882 30.7548 54.9007 30.7548C56.0132 30.7548 56.9159 31.6563 56.9159 32.7672V44.5238C56.9159 45.6347 56.0132 46.5362 54.9007 46.5362C53.7882 46.5399 52.8855 45.6384 52.8855 44.5238Z" fill="url(#paint2_linear_300_178)"/>
<path d="M73.9999 40.2932C73.9999 41.3705 73.9063 42.242 73.7303 42.9078C73.4868 43.7607 73.0523 44.505 72.4268 45.1372C71.3105 46.2743 69.8347 46.8466 68.0068 46.8466C67.1191 46.8466 66.295 46.7195 65.5459 46.4614C64.6994 46.1696 64.0027 45.7357 63.4596 45.1596C62.7928 44.4602 62.3471 43.7083 62.1261 42.9116C62.0324 42.5487 61.9575 42.1448 61.9163 41.6922C61.8901 41.3293 61.8751 40.8655 61.8751 40.2969V32.7672C61.8751 31.6563 62.7778 30.7548 63.8903 30.7548H63.8941C65.0065 30.7548 65.9092 31.6563 65.9092 32.7672V40.2894C65.9092 40.7047 65.9317 41.0637 65.9729 41.363C66.0254 41.7445 66.1227 42.0662 66.2538 42.3318C66.576 42.9789 67.1453 43.3006 67.9656 43.3006C68.8159 43.3006 69.3852 42.9864 69.6774 42.3542C69.7973 42.0961 69.8797 41.7782 69.9284 41.3967C69.9583 41.1199 69.9696 40.7495 69.9696 40.2932V32.7672C69.9696 31.6563 70.8723 30.7548 71.9848 30.7548H71.9885C73.101 30.7548 74.0037 31.6563 74.0037 32.7672V40.2932H73.9999Z" fill="url(#paint3_linear_300_178)"/>
<path d="M8.14689 47C3.64831 47 0 43.3604 0 38.8643V8.28904C0 3.79665 3.64831 0.153351 8.14689 0.153351C12.6455 0.153351 16.2938 3.79665 16.2938 8.28904V38.8643C16.2938 43.3604 12.6455 47 8.14689 47Z" fill="url(#paint4_linear_300_178)"/>
<path d="M38.6369 16.406C43.1736 16.406 46.8512 12.7334 46.8512 8.20302C46.8512 3.67262 43.1736 0 38.6369 0C34.1003 0 30.4226 3.67262 30.4226 8.20302C30.4226 12.7334 34.1003 16.406 38.6369 16.406Z" fill="url(#paint5_linear_300_178)"/>
<path d="M38.6369 46.8466C34.1383 46.8466 30.49 43.2033 30.49 38.7109V8.13569C30.49 3.64329 34.1383 0 38.6369 0C43.1355 0 46.7838 3.64329 46.7838 8.13569V38.7109C46.7838 43.2033 43.1355 46.8466 38.6369 46.8466Z" fill="url(#paint6_linear_300_178)"/>
<path d="M8.21431 47C12.751 47 16.4286 43.3274 16.4286 38.797C16.4286 34.2666 12.751 30.594 8.21431 30.594C3.67767 30.594 0 34.2666 0 38.797C0 43.3274 3.67767 47 8.21431 47Z" fill="url(#paint7_linear_300_178)"/>
<path d="M44.3379 44.4302C41.1578 47.606 35.9999 47.606 32.8161 44.4302L2.38605 14.042C-0.794048 10.8663 -0.794048 5.71556 2.38605 2.53609C5.56615 -0.639635 10.724 -0.639635 13.9078 2.53609L44.3379 32.9243C47.518 36.1038 47.518 41.2545 44.3379 44.4302Z" fill="url(#paint8_linear_300_178)"/>
<defs>
<linearGradient id="paint0_linear_300_178" x1="54.9026" y1="1.61689" x2="54.9026" y2="17.4019" gradientUnits="userSpaceOnUse">
<stop stop-color="#FFFBD6"/>
<stop offset="1" stop-color="#D8B976"/>
</linearGradient>
<linearGradient id="paint1_linear_300_178" x1="67.9343" y1="1.61689" x2="67.9343" y2="17.7038" gradientUnits="userSpaceOnUse">
<stop stop-color="#FFFBD6"/>
<stop offset="1" stop-color="#D8B976"/>
</linearGradient>
<linearGradient id="paint2_linear_300_178" x1="54.9026" y1="30.7539" x2="54.9026" y2="46.5389" gradientUnits="userSpaceOnUse">
<stop stop-color="#FFFBD6"/>
<stop offset="1" stop-color="#D8B976"/>
</linearGradient>
<linearGradient id="paint3_linear_300_178" x1="67.9343" y1="30.7539" x2="67.9343" y2="46.8409" gradientUnits="userSpaceOnUse">
<stop stop-color="#FFFBD6"/>
<stop offset="1" stop-color="#D8B976"/>
</linearGradient>
<linearGradient id="paint4_linear_300_178" x1="8.14637" y1="38.2593" x2="8.14637" y2="-8.58715" gradientUnits="userSpaceOnUse">
<stop stop-color="#FFFBD6" stop-opacity="0"/>
<stop offset="0.8376" stop-color="#D8B976"/>
</linearGradient>
<linearGradient id="paint5_linear_300_178" x1="30.4217" y1="8.20351" x2="46.8513" y2="8.20351" gradientUnits="userSpaceOnUse">
<stop stop-color="#FFFBD6"/>
<stop offset="1" stop-color="#D8B976"/>
</linearGradient>
<linearGradient id="paint6_linear_300_178" x1="38.6365" y1="-5.76153" x2="38.6365" y2="41.0849" gradientUnits="userSpaceOnUse">
<stop offset="0.3279" stop-color="#FFFBD6" stop-opacity="0"/>
<stop offset="0.8241" stop-color="#D8B976"/>
</linearGradient>
<linearGradient id="paint7_linear_300_178" x1="0" y1="38.7974" x2="16.4296" y2="38.7974" gradientUnits="userSpaceOnUse">
<stop stop-color="#FFFBD6"/>
<stop offset="1" stop-color="#D8B976"/>
</linearGradient>
<linearGradient id="paint8_linear_300_178" x1="41.0007" y1="41.1129" x2="-8.2821" y2="-8.23765" gradientUnits="userSpaceOnUse">
<stop offset="0.0782" stop-color="#FFFBD6"/>
<stop offset="0.3703" stop-color="#F1E2B3"/>
<stop offset="1" stop-color="#D8B976"/>
</linearGradient>
</defs>
</svg>
